# Blender v2.76 (sub 0) OBJ File: ''
# www.blender.org
mtllib Texture.mtl
o Cube_Cube.001
v -1.000000 -1.000000 1.000000
v -1.000000 1.000000 1.000000
v -1.000000 -1.000000 -1.000000
v -1.000000 1.000000 -1.000000
v 1.000000 -1.000000 1.000000
v 1.000000 1.000000 1.000000
v 1.000000 -1.000000 -1.000000
v 1.000000 1.000000 -1.000000
vt 1.000000 0.000000
vt 1.000000 1.000000
vt 0.000000 1.000000
vt 0.000000 0.000000
vn -1.000000 0.000000 0.000000
vn 0.000000 0.000000 -1.000000
vn 1.000000 0.000000 0.000000
vn 0.000000 0.000000 1.000000
vn 0.000000 -1.000000 0.000000
vn 0.000000 1.000000 0.000000
usemtl Material.002
s off
f 4/1/1 3/2/1 1/3/1
f 8/1/2 7/2/2 3/3/2
f 6/1/3 5/2/3 7/3/3
f 2/1/4 1/2/4 5/3/4
f 3/1/5 7/2/5 5/3/5
f 8/1/6 4/2/6 2/3/6
f 2/4/1 4/1/1 1/3/1
f 4/4/2 8/1/2 3/3/2
f 8/4/3 6/1/3 7/3/3
f 6/4/4 2/1/4 5/3/4
f 1/4/5 3/1/5 5/3/5
f 6/4/6 8/1/6 2/3/6
